<svg xmlns="http://www.w3.org/2000/svg" width="300" height="300" viewBox="0 0 300 300">
  <g id="Group_5" data-name="Group 5" transform="translate(-51 -74)">
    <g id="Group_4" data-name="Group 4">
      <g id="Group_2" data-name="Group 2">
        <circle id="Ellipse_1" data-name="Ellipse 1" cx="150" cy="150" r="150" transform="translate(51 74)" fill="#c56d86"/>
        <circle id="Ellipse_2" data-name="Ellipse 2" cx="115" cy="115" r="115" transform="translate(86 109)" fill="#fff"/>
      </g>
      <g id="Group_3" data-name="Group 3">
        <path id="Union_1" data-name="Union 1" d="M570,345a15,15,0,0,1-15-15V280H505a15,15,0,0,1-15-15V245a15,15,0,0,1,15-15h50V180a15,15,0,0,1,15-15h20a15,15,0,0,1,15,15v50h50a15,15,0,0,1,15,15v20a15,15,0,0,1-15,15H605v50a15,15,0,0,1-15,15Z" transform="translate(-379 -31)" fill="#725a7a"/>
        <path id="Path_1" data-name="Path 1" d="M25.548,24.2,50,0V49H0Z" transform="translate(176 199)" fill="#fff"/>
      </g>
    </g>
    <text id="Y" transform="translate(186 297)" fill="#fff" font-size="50" font-family="SegoeUI-Bold, Segoe UI" font-weight="700"><tspan x="0" y="0">Y</tspan></text>
    <text id="M" transform="translate(231 297)" fill="#725a7a" font-size="50" font-family="SegoeUI-Bold, Segoe UI" font-weight="700"><tspan x="0" y="0">M</tspan></text>
  </g>
</svg>
